#!OML:ASF F:\VICON\USERDATA\INSTALL\rory3\rory3.ASF
:FULLY-SPECIFIED
:DEGREES
111
root 1.33827 16.1323 -27.9476 53.1588 30.2291 17.1062
lowerback 25.5435 -6.38497 27.0072
upperback 0.5712 3.16991 18.9656
thorax -13.0038 0.563722 6.39775
lowerneck -11.0335 -8.87322 -11.2153
upperneck -0.240904 -10.839 9.86442
head 2.84514 -5.18012 4.07947
rclavicle 1.59028e-014 0
rhumerus 57.9915 -33.9466 -72.5416
rradius 13.7792
rwrist 16.412
rhand -11.0072 19.4243
rfingers 7.12502
rthumb 15.0136 -10.0114
lclavicle 1.59028e-014 0
lhumerus 89.2871 -2.53471 33.148
lradius 24.3655
lwrist -35.1848
lhand -10.7076 19.2944
lfingers 7.12502
lthumb 15.3022 48.7083
rfemur -128.962 -36.8358 108.3
rtibia 43.996
rfoot 24.5488 31.6191
rtoes 59.6487
lfemur -48.2351 -6.23203 -25.3798
ltibia 37.6397
lfoot -3.41781 -18.4862
ltoes -33.7804
112
root 1.31686 16.1749 -27.8293 53.6395 29.2309 17.7702
lowerback 27.6184 -6.57971 27.2012
upperback 0.602982 3.9135 19.261
thorax -13.9445 0.801553 6.51856
lowerneck -10.7052 -8.84378 -11.8247
upperneck -0.785223 -10.7388 9.89969
head 2.65252 -5.14484 4.21588
rclavicle -5.40694e-014 5.12864e-014
rhumerus 58.4855 -34.5909 -73.5192
rradius 13.5138
rwrist 17.4158
rhand -11.4437 20.5319
rfingers 7.12502
rthumb 14.593 -8.93471
lclavicle -5.40694e-014 5.12864e-014
lhumerus 89.4466 -1.54052 30.8683
lradius 24.8252
lwrist -32.7738
lhand -11.062 19.3339
lfingers 7.12502
lthumb 14.9607 48.7735
rfemur -129.047 -36.9159 107.824
rtibia 43.6875
rfoot 25.6732 31.8187
rtoes 60.0262
lfemur -48.2313 -4.6449 -25.7522
ltibia 37.6607
lfoot 5.28991 -22.0333
ltoes -29.1885
113
root 1.30026 16.2162 -27.6725 54.5181 28.2487 18.8028
lowerback 28.8388 -7.39114 26.9952
upperback 1.28184 3.08087 19.0755
thorax -13.6897 0.476827 6.74375
lowerneck -12.1933 -7.80162 -9.17285
upperneck -1.37771 -9.48379 8.60009
head 2.38032 -4.52983 3.48563
rclavicle -7.95139e-014 1.8487e-014
rhumerus 62.9166 -34.9912 -81.0586
rradius 12.6263
rwrist 21.4037
rhand -12.0214 19.9498
rfingers 7.12502
rthumb 14.0364 -9.55623
lclavicle -7.95139e-014 1.8487e-014
lhumerus 87.7091 1.83539 20.932
lradius 27.1834
lwrist -24.7685
lhand -11.6953 21.4952
lfingers 7.12502
lthumb 14.3506 50.9792
rfemur -129.632 -36.8907 107.521
rtibia 43.4617
rfoot 26.7522 32.1841
rtoes 60.0862
lfemur -48.1311 -3.35667 -26.1695
ltibia 37.5625
lfoot 13.9022 -23.2117
ltoes -27.9045
114
root 1.27462 16.2306 -27.4887 56.1105 26.0932 20.6898
lowerback 29.8527 -7.3516 25.3044
upperback 1.58625 2.92988 19.3007
thorax -13.9675 0.507855 7.80083
lowerneck -11.8206 -7.289 -9.56125
upperneck -2.99902 -8.72215 8.74114
head 1.79552 -4.16642 3.69213
rclavicle -2.22639e-014 -8.29926e-014
rhumerus 66.9004 -35.6676 -86.9243
rradius 11.7258
rwrist 25.4504
rhand -12.7963 18.2463
rfingers 7.12502
rthumb 13.2896 -11.31
lclavicle -2.22639e-014 -8.29926e-014
lhumerus 87.6913 2.04569 25.4418
lradius 25.9817
lwrist -29.3897
lhand -12.5053 20.3324
lfingers 7.12502
lthumb 13.5701 49.8701
rfemur -130.434 -36.403 105.837
rtibia 43.3394
rfoot 27.9401 32.2864
rtoes 60.1164
lfemur -48.0939 -1.75704 -28.2006
ltibia 37.288
lfoot 21.2745 -22.6794
ltoes -30.9834
115
root 1.24915 16.2903 -27.3435 56.1113 25.8948 20.9736
lowerback 31.9009 -7.70983 26.1309
upperback 1.6885 3.78352 20.1031
thorax -14.7862 0.788377 8.2239
lowerneck -10.6717 -7.27557 -11.3022
upperneck -4.54066 -8.55965 9.29806
head 1.24344 -4.09152 4.21086
rclavicle 3.18055e-014 2.00773e-014
rhumerus 69.2933 -36.4437 -89.8699
rradius 11.1525
rwrist 27.8093
rhand -13.4997 17.5328
rfingers 7.12502
rthumb 12.6115 -12.0665
lclavicle 3.18055e-014 2.00773e-014
lhumerus 87.4691 2.88335 26.1995
lradius 26.0707
lwrist -29.1232
lhand -13.1843 20.346
lfingers 7.12502
lthumb 12.9155 49.9263
rfemur -130.695 -36.8488 106.512
rtibia 43.1832
rfoot 28.5596 33.0744
rtoes 60.086
lfemur -47.2484 -0.188197 -27.5594
ltibia 36.9245
lfoot 25.9816 -21.2591
ltoes -36.199
116
root 1.23269 16.3131 -27.1733 56.8824 24.4503 22.1369
lowerback 33.2757 -7.7638 25.409
upperback 1.92888 4.13663 20.8567
thorax -15.3064 0.98464 9.36562
lowerneck -9.94057 -7.07407 -13.0812
upperneck -5.8034 -8.14887 9.51786
head 0.79097 -3.87206 4.63449
rclavicle -1.27222e-014 5.1684e-014
rhumerus 69.4865 -35.585 -89.2439
rradius 11.1312
rwrist 26.7691
rhand -14.4181 16.0065
rfingers 7.12502
rthumb 11.726 -13.6453
lclavicle -1.27222e-014 5.1684e-014
lhumerus 87.0188 3.55056 27.0413
lradius 26.0449
lwrist -28.8973
lhand -13.5759 20.628
lfingers 7.12502
lthumb 12.538 50.2318
rfemur -131.446 -36.9766 105.619
rtibia 43.1567
rfoot 30.3226 32.8775
rtoes 60.3135
lfemur -46.0806 -0.746664 -27.2349
ltibia 36.2718
lfoot 24.871 -21.3919
ltoes -46.302
117
root 1.20392 16.3208 -26.9781 58.2856 22.7738 23.7379
lowerback 34.0669 -7.90341 23.8869
upperback 2.28276 3.81954 21.6414
thorax -15.5291 0.995128 11.157
lowerneck -10.7029 -6.57133 -13.9594
upperneck -5.76969 -7.29004 9.02319
head 0.825408 -3.41285 4.65582
rclavicle 1.49486e-013 1.19271e-014
rhumerus 71.2503 -34.1115 -91.5519
rradius 10.7086
rwrist 27.2813
rhand -15.8455 14.7801
rfingers 7.12502
rthumb 10.3492 -14.9452
lclavicle 1.49486e-013 1.19271e-014
lhumerus 85.0242 5.06778 24.6401
lradius 27.0307
lwrist -26.0872
lhand -13.6923 21.2745
lfingers 7.12502
lthumb 12.4258 50.8852
rfemur -132.445 -36.5617 104.498
rtibia 43.1333
rfoot 31.4155 33.0514
rtoes 60.4046
lfemur -45.0361 -1.69263 -27.0241
ltibia 35.5165
lfoot 22.6068 -21.3871
ltoes -53.6899
